<mxfile host="65bd71144e">
    <diagram name="Copy of Page-1" id="fY0r9fH3LMe3Tnd8B4Ro">
        <mxGraphModel dx="2506" dy="1142" grid="1" gridSize="10" guides="1" tooltips="1" connect="1" arrows="1" fold="1" page="1" pageScale="1" pageWidth="827" pageHeight="1169" math="0" shadow="0">
            <root>
                <mxCell id="iM_wBzGXd8bx9JoInRD0-0"/>
                <mxCell id="iM_wBzGXd8bx9JoInRD0-1" parent="iM_wBzGXd8bx9JoInRD0-0"/>
                <mxCell id="iM_wBzGXd8bx9JoInRD0-2" style="edgeStyle=orthogonalEdgeStyle;rounded=1;orthogonalLoop=1;jettySize=auto;html=1;exitX=0.25;exitY=0;exitDx=0;exitDy=0;fontSize=13;shape=flexArrow;" parent="iM_wBzGXd8bx9JoInRD0-1" source="iM_wBzGXd8bx9JoInRD0-4" target="iM_wBzGXd8bx9JoInRD0-18" edge="1">
                    <mxGeometry relative="1" as="geometry"/>
                </mxCell>
                <mxCell id="iM_wBzGXd8bx9JoInRD0-3" style="edgeStyle=orthogonalEdgeStyle;rounded=1;orthogonalLoop=1;jettySize=auto;html=1;exitX=0.75;exitY=0;exitDx=0;exitDy=0;entryX=0.5;entryY=1;entryDx=0;entryDy=0;fontSize=13;shape=flexArrow;" parent="iM_wBzGXd8bx9JoInRD0-1" source="iM_wBzGXd8bx9JoInRD0-4" target="iM_wBzGXd8bx9JoInRD0-22" edge="1">
                    <mxGeometry relative="1" as="geometry"/>
                </mxCell>
                <mxCell id="iM_wBzGXd8bx9JoInRD0-4" value="" style="rounded=1;whiteSpace=wrap;html=1;" parent="iM_wBzGXd8bx9JoInRD0-1" vertex="1">
                    <mxGeometry x="121" y="340" width="550" height="370" as="geometry"/>
                </mxCell>
                <mxCell id="iM_wBzGXd8bx9JoInRD0-5" value="" style="edgeStyle=orthogonalEdgeStyle;rounded=1;orthogonalLoop=1;jettySize=auto;html=1;fontSize=13;" parent="iM_wBzGXd8bx9JoInRD0-1" source="iM_wBzGXd8bx9JoInRD0-6" target="iM_wBzGXd8bx9JoInRD0-12" edge="1">
                    <mxGeometry relative="1" as="geometry"/>
                </mxCell>
                <mxCell id="iM_wBzGXd8bx9JoInRD0-6" value="&lt;b&gt;&lt;font style=&quot;font-size: 13px&quot;&gt;BERT&lt;br&gt;(Embeddings + Encoder + Pooler)&lt;br&gt;&lt;/font&gt;&lt;/b&gt;" style="rounded=1;whiteSpace=wrap;html=1;" parent="iM_wBzGXd8bx9JoInRD0-1" vertex="1">
                    <mxGeometry x="176" y="540" width="440" height="131" as="geometry"/>
                </mxCell>
                <mxCell id="iM_wBzGXd8bx9JoInRD0-7" value="&lt;b&gt;&lt;font style=&quot;font-size: 19px&quot;&gt;SHARED&lt;/font&gt;&lt;/b&gt;" style="text;html=1;strokeColor=none;fillColor=none;align=center;verticalAlign=middle;whiteSpace=wrap;rounded=1;" parent="iM_wBzGXd8bx9JoInRD0-1" vertex="1">
                    <mxGeometry x="129" y="355" width="100" height="40" as="geometry"/>
                </mxCell>
                <mxCell id="iM_wBzGXd8bx9JoInRD0-8" style="edgeStyle=orthogonalEdgeStyle;shape=flexArrow;rounded=1;orthogonalLoop=1;jettySize=auto;html=1;exitX=0.5;exitY=0;exitDx=0;exitDy=0;entryX=0.25;entryY=1;entryDx=0;entryDy=0;fontSize=19;" parent="iM_wBzGXd8bx9JoInRD0-1" source="iM_wBzGXd8bx9JoInRD0-9" target="iM_wBzGXd8bx9JoInRD0-13" edge="1">
                    <mxGeometry relative="1" as="geometry"/>
                </mxCell>
                <mxCell id="iM_wBzGXd8bx9JoInRD0-9" value="&lt;b&gt;STATE&lt;/b&gt;" style="text;html=1;strokeColor=none;fillColor=none;align=center;verticalAlign=middle;whiteSpace=wrap;rounded=1;fontSize=19;" parent="iM_wBzGXd8bx9JoInRD0-1" vertex="1">
                    <mxGeometry x="222" y="879" width="73" height="30" as="geometry"/>
                </mxCell>
                <mxCell id="iM_wBzGXd8bx9JoInRD0-10" style="edgeStyle=orthogonalEdgeStyle;shape=flexArrow;rounded=1;orthogonalLoop=1;jettySize=auto;html=1;exitX=0.5;exitY=0;exitDx=0;exitDy=0;entryX=0.75;entryY=1;entryDx=0;entryDy=0;fontSize=19;" parent="iM_wBzGXd8bx9JoInRD0-1" source="iM_wBzGXd8bx9JoInRD0-11" target="iM_wBzGXd8bx9JoInRD0-13" edge="1">
                    <mxGeometry relative="1" as="geometry"/>
                </mxCell>
                <mxCell id="iM_wBzGXd8bx9JoInRD0-11" value="&lt;b&gt;ACTION&lt;/b&gt;" style="text;html=1;strokeColor=none;fillColor=none;align=center;verticalAlign=middle;whiteSpace=wrap;rounded=1;fontSize=19;" parent="iM_wBzGXd8bx9JoInRD0-1" vertex="1">
                    <mxGeometry x="493.5" y="879" width="79" height="30" as="geometry"/>
                </mxCell>
                <mxCell id="iM_wBzGXd8bx9JoInRD0-12" value="&lt;b&gt;&lt;font style=&quot;font-size: 13px&quot;&gt;Fully Connected&lt;/font&gt;&lt;/b&gt;" style="rounded=1;whiteSpace=wrap;html=1;" parent="iM_wBzGXd8bx9JoInRD0-1" vertex="1">
                    <mxGeometry x="176" y="422" width="440" height="60" as="geometry"/>
                </mxCell>
                <mxCell id="iM_wBzGXd8bx9JoInRD0-13" value="" style="rounded=1;whiteSpace=wrap;html=1;fontSize=13;" parent="iM_wBzGXd8bx9JoInRD0-1" vertex="1">
                    <mxGeometry x="120" y="769" width="551" height="60" as="geometry"/>
                </mxCell>
                <mxCell id="iM_wBzGXd8bx9JoInRD0-14" value="" style="shape=flexArrow;endArrow=classic;html=1;rounded=1;fontSize=13;exitX=0.75;exitY=0;exitDx=0;exitDy=0;entryX=0.75;entryY=1;entryDx=0;entryDy=0;" parent="iM_wBzGXd8bx9JoInRD0-1" source="iM_wBzGXd8bx9JoInRD0-13" target="iM_wBzGXd8bx9JoInRD0-4" edge="1">
                    <mxGeometry width="50" height="50" relative="1" as="geometry">
                        <mxPoint x="372" y="760" as="sourcePoint"/>
                        <mxPoint x="422" y="710" as="targetPoint"/>
                    </mxGeometry>
                </mxCell>
                <mxCell id="iM_wBzGXd8bx9JoInRD0-15" value="" style="shape=flexArrow;endArrow=classic;html=1;rounded=1;fontSize=13;exitX=0.25;exitY=0;exitDx=0;exitDy=0;entryX=0.25;entryY=1;entryDx=0;entryDy=0;" parent="iM_wBzGXd8bx9JoInRD0-1" source="iM_wBzGXd8bx9JoInRD0-13" target="iM_wBzGXd8bx9JoInRD0-4" edge="1">
                    <mxGeometry width="50" height="50" relative="1" as="geometry">
                        <mxPoint x="372" y="760" as="sourcePoint"/>
                        <mxPoint x="292" y="740" as="targetPoint"/>
                    </mxGeometry>
                </mxCell>
                <mxCell id="iM_wBzGXd8bx9JoInRD0-16" value="&lt;b&gt;&lt;font style=&quot;font-size: 19px&quot;&gt;TOKENIZER&lt;/font&gt;&lt;/b&gt;" style="text;html=1;strokeColor=none;fillColor=none;align=center;verticalAlign=middle;whiteSpace=wrap;rounded=1;" parent="iM_wBzGXd8bx9JoInRD0-1" vertex="1">
                    <mxGeometry x="319" y="779" width="154" height="40" as="geometry"/>
                </mxCell>
                <mxCell id="iM_wBzGXd8bx9JoInRD0-17" style="edgeStyle=orthogonalEdgeStyle;shape=flexArrow;rounded=1;orthogonalLoop=1;jettySize=auto;html=1;exitX=0.5;exitY=0;exitDx=0;exitDy=0;entryX=0.25;entryY=1;entryDx=0;entryDy=0;fontSize=13;" parent="iM_wBzGXd8bx9JoInRD0-1" source="iM_wBzGXd8bx9JoInRD0-18" target="iM_wBzGXd8bx9JoInRD0-20" edge="1">
                    <mxGeometry relative="1" as="geometry"/>
                </mxCell>
                <mxCell id="iM_wBzGXd8bx9JoInRD0-18" value="&lt;b&gt;&lt;font style=&quot;font-size: 19px&quot;&gt;STATE&lt;/font&gt;&lt;br&gt;Fully Connected&lt;br&gt;&lt;/b&gt;" style="rounded=1;whiteSpace=wrap;html=1;fontSize=13;" parent="iM_wBzGXd8bx9JoInRD0-1" vertex="1">
                    <mxGeometry x="199" y="223" width="120" height="60" as="geometry"/>
                </mxCell>
                <mxCell id="iM_wBzGXd8bx9JoInRD0-19" style="edgeStyle=orthogonalEdgeStyle;shape=flexArrow;rounded=1;orthogonalLoop=1;jettySize=auto;html=1;exitX=0.5;exitY=0;exitDx=0;exitDy=0;fontSize=13;" parent="iM_wBzGXd8bx9JoInRD0-1" source="iM_wBzGXd8bx9JoInRD0-20" edge="1">
                    <mxGeometry relative="1" as="geometry">
                        <mxPoint x="396" y="43" as="targetPoint"/>
                    </mxGeometry>
                </mxCell>
                <mxCell id="iM_wBzGXd8bx9JoInRD0-20" value="&lt;b&gt;&lt;font style=&quot;font-size: 19px&quot;&gt;OUTPUT&lt;/font&gt;&lt;br&gt;Fully Connected&lt;/b&gt;" style="rounded=1;whiteSpace=wrap;html=1;fontSize=13;" parent="iM_wBzGXd8bx9JoInRD0-1" vertex="1">
                    <mxGeometry x="199" y="103" width="393" height="60" as="geometry"/>
                </mxCell>
                <mxCell id="iM_wBzGXd8bx9JoInRD0-21" style="edgeStyle=orthogonalEdgeStyle;shape=flexArrow;rounded=1;orthogonalLoop=1;jettySize=auto;html=1;exitX=0.5;exitY=0;exitDx=0;exitDy=0;entryX=0.75;entryY=1;entryDx=0;entryDy=0;fontSize=13;" parent="iM_wBzGXd8bx9JoInRD0-1" source="iM_wBzGXd8bx9JoInRD0-22" target="iM_wBzGXd8bx9JoInRD0-20" edge="1">
                    <mxGeometry relative="1" as="geometry"/>
                </mxCell>
                <mxCell id="iM_wBzGXd8bx9JoInRD0-22" value="&lt;b&gt;&lt;font style=&quot;font-size: 19px&quot;&gt;ACTION&lt;/font&gt;&lt;br&gt;Fully Connected&lt;br&gt;&lt;/b&gt;" style="rounded=1;whiteSpace=wrap;html=1;fontSize=13;" parent="iM_wBzGXd8bx9JoInRD0-1" vertex="1">
                    <mxGeometry x="473" y="223" width="120" height="60" as="geometry"/>
                </mxCell>
                <mxCell id="iM_wBzGXd8bx9JoInRD0-23" value="&lt;div&gt;B: batch size&lt;/div&gt;&lt;div&gt;L: sequence length&lt;/div&gt;&lt;div&gt;T: sequence tokens length&lt;/div&gt;" style="text;html=1;strokeColor=none;fillColor=none;align=left;verticalAlign=middle;whiteSpace=wrap;rounded=1;" parent="iM_wBzGXd8bx9JoInRD0-1" vertex="1">
                    <mxGeometry x="606" y="840" width="221" height="90" as="geometry"/>
                </mxCell>
                <mxCell id="iM_wBzGXd8bx9JoInRD0-24" value="(B,L&lt;sub&gt;2&lt;/sub&gt;)" style="text;html=1;strokeColor=none;fillColor=none;align=center;verticalAlign=middle;whiteSpace=wrap;rounded=1;" parent="iM_wBzGXd8bx9JoInRD0-1" vertex="1">
                    <mxGeometry x="503" y="900" width="60" height="30" as="geometry"/>
                </mxCell>
                <mxCell id="iM_wBzGXd8bx9JoInRD0-25" value="(B,L&lt;sub&gt;1&lt;/sub&gt;)" style="text;html=1;strokeColor=none;fillColor=none;align=center;verticalAlign=middle;whiteSpace=wrap;rounded=1;" parent="iM_wBzGXd8bx9JoInRD0-1" vertex="1">
                    <mxGeometry x="229" y="900" width="60" height="30" as="geometry"/>
                </mxCell>
                <mxCell id="iM_wBzGXd8bx9JoInRD0-26" value="(B,T&lt;sub&gt;1&lt;/sub&gt;)" style="text;html=1;strokeColor=none;fillColor=none;align=center;verticalAlign=middle;whiteSpace=wrap;rounded=1;" parent="iM_wBzGXd8bx9JoInRD0-1" vertex="1">
                    <mxGeometry x="259" y="730" width="60" height="30" as="geometry"/>
                </mxCell>
                <mxCell id="iM_wBzGXd8bx9JoInRD0-27" value="(B,T&lt;sub&gt;2&lt;/sub&gt;)" style="text;html=1;strokeColor=none;fillColor=none;align=center;verticalAlign=middle;whiteSpace=wrap;rounded=1;" parent="iM_wBzGXd8bx9JoInRD0-1" vertex="1">
                    <mxGeometry x="533" y="730" width="60" height="30" as="geometry"/>
                </mxCell>
                <mxCell id="iM_wBzGXd8bx9JoInRD0-28" value="(B,T)" style="text;html=1;strokeColor=none;fillColor=none;align=center;verticalAlign=middle;whiteSpace=wrap;rounded=1;" parent="iM_wBzGXd8bx9JoInRD0-1" vertex="1">
                    <mxGeometry x="397.5" y="671" width="37.5" height="30" as="geometry"/>
                </mxCell>
                <mxCell id="iM_wBzGXd8bx9JoInRD0-29" value="(B,hidden_size)" style="text;html=1;strokeColor=none;fillColor=none;align=center;verticalAlign=middle;whiteSpace=wrap;rounded=1;" parent="iM_wBzGXd8bx9JoInRD0-1" vertex="1">
                    <mxGeometry x="397.5" y="490" width="96" height="30" as="geometry"/>
                </mxCell>
                <mxCell id="iM_wBzGXd8bx9JoInRD0-30" value="(B, out_features)" style="text;html=1;strokeColor=none;fillColor=none;align=center;verticalAlign=middle;whiteSpace=wrap;rounded=1;" parent="iM_wBzGXd8bx9JoInRD0-1" vertex="1">
                    <mxGeometry x="397.5" y="385" width="100" height="30" as="geometry"/>
                </mxCell>
                <mxCell id="iM_wBzGXd8bx9JoInRD0-31" value="(B, shared_out_dim)" style="text;html=1;strokeColor=none;fillColor=none;align=center;verticalAlign=middle;whiteSpace=wrap;rounded=1;" parent="iM_wBzGXd8bx9JoInRD0-1" vertex="1">
                    <mxGeometry x="540" y="300" width="140" height="30" as="geometry"/>
                </mxCell>
                <mxCell id="iM_wBzGXd8bx9JoInRD0-32" value="(B, shared_out_dim)" style="text;html=1;strokeColor=none;fillColor=none;align=center;verticalAlign=middle;whiteSpace=wrap;rounded=1;" parent="iM_wBzGXd8bx9JoInRD0-1" vertex="1">
                    <mxGeometry x="259" y="300" width="140" height="30" as="geometry"/>
                </mxCell>
                <mxCell id="iM_wBzGXd8bx9JoInRD0-33" value="(B, action_layers)" style="text;html=1;strokeColor=none;fillColor=none;align=center;verticalAlign=middle;whiteSpace=wrap;rounded=1;" parent="iM_wBzGXd8bx9JoInRD0-1" vertex="1">
                    <mxGeometry x="533" y="187" width="117" height="30" as="geometry"/>
                </mxCell>
                <mxCell id="iM_wBzGXd8bx9JoInRD0-34" value="(B, state_layers)" style="text;html=1;strokeColor=none;fillColor=none;align=center;verticalAlign=middle;whiteSpace=wrap;rounded=1;" parent="iM_wBzGXd8bx9JoInRD0-1" vertex="1">
                    <mxGeometry x="289" y="187" width="140" height="30" as="geometry"/>
                </mxCell>
                <mxCell id="iM_wBzGXd8bx9JoInRD0-35" value="(B)" style="text;html=1;strokeColor=none;fillColor=none;align=center;verticalAlign=middle;whiteSpace=wrap;rounded=1;" parent="iM_wBzGXd8bx9JoInRD0-1" vertex="1">
                    <mxGeometry x="325.5" y="11" width="140" height="30" as="geometry"/>
                </mxCell>
                <mxCell id="iM_wBzGXd8bx9JoInRD0-36" style="edgeStyle=orthogonalEdgeStyle;rounded=1;orthogonalLoop=1;jettySize=auto;html=1;exitX=0.25;exitY=0;exitDx=0;exitDy=0;fontSize=13;shape=flexArrow;" parent="iM_wBzGXd8bx9JoInRD0-1" source="iM_wBzGXd8bx9JoInRD0-38" target="iM_wBzGXd8bx9JoInRD0-53" edge="1">
                    <mxGeometry relative="1" as="geometry"/>
                </mxCell>
                <mxCell id="iM_wBzGXd8bx9JoInRD0-37" style="edgeStyle=orthogonalEdgeStyle;rounded=1;orthogonalLoop=1;jettySize=auto;html=1;exitX=0.75;exitY=0;exitDx=0;exitDy=0;entryX=0.5;entryY=1;entryDx=0;entryDy=0;fontSize=13;shape=flexArrow;" parent="iM_wBzGXd8bx9JoInRD0-1" source="iM_wBzGXd8bx9JoInRD0-38" target="iM_wBzGXd8bx9JoInRD0-57" edge="1">
                    <mxGeometry relative="1" as="geometry"/>
                </mxCell>
                <mxCell id="iM_wBzGXd8bx9JoInRD0-38" value="" style="rounded=1;whiteSpace=wrap;html=1;" parent="iM_wBzGXd8bx9JoInRD0-1" vertex="1">
                    <mxGeometry x="-529" y="340" width="550" height="360" as="geometry"/>
                </mxCell>
                <mxCell id="iM_wBzGXd8bx9JoInRD0-39" value="" style="edgeStyle=orthogonalEdgeStyle;rounded=1;orthogonalLoop=1;jettySize=auto;html=1;" parent="iM_wBzGXd8bx9JoInRD0-1" source="iM_wBzGXd8bx9JoInRD0-40" target="iM_wBzGXd8bx9JoInRD0-47" edge="1">
                    <mxGeometry relative="1" as="geometry"/>
                </mxCell>
                <mxCell id="iM_wBzGXd8bx9JoInRD0-40" value="&lt;b&gt;&lt;font style=&quot;font-size: 13px&quot;&gt;BERT Embeddings&lt;/font&gt;&lt;/b&gt;" style="rounded=1;whiteSpace=wrap;html=1;" parent="iM_wBzGXd8bx9JoInRD0-1" vertex="1">
                    <mxGeometry x="-474" y="610" width="440" height="50" as="geometry"/>
                </mxCell>
                <mxCell id="iM_wBzGXd8bx9JoInRD0-41" value="&lt;b&gt;&lt;font style=&quot;font-size: 19px&quot;&gt;SHARED&lt;/font&gt;&lt;/b&gt;" style="text;html=1;strokeColor=none;fillColor=none;align=center;verticalAlign=middle;whiteSpace=wrap;rounded=1;" parent="iM_wBzGXd8bx9JoInRD0-1" vertex="1">
                    <mxGeometry x="-518" y="350" width="100" height="40" as="geometry"/>
                </mxCell>
                <mxCell id="iM_wBzGXd8bx9JoInRD0-42" style="edgeStyle=orthogonalEdgeStyle;shape=flexArrow;rounded=1;orthogonalLoop=1;jettySize=auto;html=1;exitX=0.5;exitY=0;exitDx=0;exitDy=0;entryX=0.25;entryY=1;entryDx=0;entryDy=0;fontSize=19;" parent="iM_wBzGXd8bx9JoInRD0-1" source="iM_wBzGXd8bx9JoInRD0-43" target="iM_wBzGXd8bx9JoInRD0-48" edge="1">
                    <mxGeometry relative="1" as="geometry"/>
                </mxCell>
                <mxCell id="iM_wBzGXd8bx9JoInRD0-43" value="&lt;b&gt;STATE&lt;/b&gt;" style="text;html=1;strokeColor=none;fillColor=none;align=center;verticalAlign=middle;whiteSpace=wrap;rounded=1;fontSize=19;" parent="iM_wBzGXd8bx9JoInRD0-1" vertex="1">
                    <mxGeometry x="-428" y="880" width="73" height="30" as="geometry"/>
                </mxCell>
                <mxCell id="iM_wBzGXd8bx9JoInRD0-44" style="edgeStyle=orthogonalEdgeStyle;shape=flexArrow;rounded=1;orthogonalLoop=1;jettySize=auto;html=1;exitX=0.5;exitY=0;exitDx=0;exitDy=0;entryX=0.75;entryY=1;entryDx=0;entryDy=0;fontSize=19;" parent="iM_wBzGXd8bx9JoInRD0-1" source="iM_wBzGXd8bx9JoInRD0-45" target="iM_wBzGXd8bx9JoInRD0-48" edge="1">
                    <mxGeometry relative="1" as="geometry"/>
                </mxCell>
                <mxCell id="iM_wBzGXd8bx9JoInRD0-45" value="&lt;b&gt;ACTION&lt;/b&gt;" style="text;html=1;strokeColor=none;fillColor=none;align=center;verticalAlign=middle;whiteSpace=wrap;rounded=1;fontSize=19;" parent="iM_wBzGXd8bx9JoInRD0-1" vertex="1">
                    <mxGeometry x="-156.5" y="880" width="79" height="30" as="geometry"/>
                </mxCell>
                <mxCell id="iM_wBzGXd8bx9JoInRD0-46" value="" style="edgeStyle=orthogonalEdgeStyle;rounded=1;orthogonalLoop=1;jettySize=auto;html=1;" parent="iM_wBzGXd8bx9JoInRD0-1" source="iM_wBzGXd8bx9JoInRD0-47" target="iM_wBzGXd8bx9JoInRD0-58" edge="1">
                    <mxGeometry relative="1" as="geometry"/>
                </mxCell>
                <mxCell id="iM_wBzGXd8bx9JoInRD0-47" value="&lt;b&gt;&lt;font style=&quot;font-size: 13px&quot;&gt;LSTM&lt;/font&gt;&lt;/b&gt;" style="rounded=1;whiteSpace=wrap;html=1;" parent="iM_wBzGXd8bx9JoInRD0-1" vertex="1">
                    <mxGeometry x="-474" y="505" width="440" height="60" as="geometry"/>
                </mxCell>
                <mxCell id="iM_wBzGXd8bx9JoInRD0-48" value="" style="rounded=1;whiteSpace=wrap;html=1;fontSize=13;" parent="iM_wBzGXd8bx9JoInRD0-1" vertex="1">
                    <mxGeometry x="-530" y="770" width="551" height="60" as="geometry"/>
                </mxCell>
                <mxCell id="iM_wBzGXd8bx9JoInRD0-49" value="" style="shape=flexArrow;endArrow=classic;html=1;rounded=1;fontSize=13;exitX=0.75;exitY=0;exitDx=0;exitDy=0;entryX=0.75;entryY=1;entryDx=0;entryDy=0;" parent="iM_wBzGXd8bx9JoInRD0-1" source="iM_wBzGXd8bx9JoInRD0-48" edge="1">
                    <mxGeometry width="50" height="50" relative="1" as="geometry">
                        <mxPoint x="-278" y="750" as="sourcePoint"/>
                        <mxPoint x="-116.5" y="700" as="targetPoint"/>
                    </mxGeometry>
                </mxCell>
                <mxCell id="iM_wBzGXd8bx9JoInRD0-50" value="" style="shape=flexArrow;endArrow=classic;html=1;rounded=1;fontSize=13;exitX=0.25;exitY=0;exitDx=0;exitDy=0;entryX=0.25;entryY=1;entryDx=0;entryDy=0;" parent="iM_wBzGXd8bx9JoInRD0-1" source="iM_wBzGXd8bx9JoInRD0-48" edge="1">
                    <mxGeometry width="50" height="50" relative="1" as="geometry">
                        <mxPoint x="-278" y="750" as="sourcePoint"/>
                        <mxPoint x="-391.5" y="700" as="targetPoint"/>
                    </mxGeometry>
                </mxCell>
                <mxCell id="iM_wBzGXd8bx9JoInRD0-51" value="&lt;b&gt;&lt;font style=&quot;font-size: 19px&quot;&gt;TOKENIZER&lt;/font&gt;&lt;/b&gt;" style="text;html=1;strokeColor=none;fillColor=none;align=center;verticalAlign=middle;whiteSpace=wrap;rounded=1;" parent="iM_wBzGXd8bx9JoInRD0-1" vertex="1">
                    <mxGeometry x="-331" y="780" width="154" height="40" as="geometry"/>
                </mxCell>
                <mxCell id="iM_wBzGXd8bx9JoInRD0-52" style="edgeStyle=orthogonalEdgeStyle;shape=flexArrow;rounded=1;orthogonalLoop=1;jettySize=auto;html=1;exitX=0.5;exitY=0;exitDx=0;exitDy=0;entryX=0.25;entryY=1;entryDx=0;entryDy=0;fontSize=13;" parent="iM_wBzGXd8bx9JoInRD0-1" source="iM_wBzGXd8bx9JoInRD0-53" target="iM_wBzGXd8bx9JoInRD0-55" edge="1">
                    <mxGeometry relative="1" as="geometry"/>
                </mxCell>
                <mxCell id="iM_wBzGXd8bx9JoInRD0-53" value="&lt;b&gt;&lt;font style=&quot;font-size: 19px&quot;&gt;STATE&lt;/font&gt;&lt;br&gt;Fully Connected&lt;br&gt;&lt;/b&gt;" style="rounded=1;whiteSpace=wrap;html=1;fontSize=13;" parent="iM_wBzGXd8bx9JoInRD0-1" vertex="1">
                    <mxGeometry x="-451" y="220" width="120" height="60" as="geometry"/>
                </mxCell>
                <mxCell id="iM_wBzGXd8bx9JoInRD0-54" style="edgeStyle=orthogonalEdgeStyle;shape=flexArrow;rounded=1;orthogonalLoop=1;jettySize=auto;html=1;exitX=0.5;exitY=0;exitDx=0;exitDy=0;fontSize=13;" parent="iM_wBzGXd8bx9JoInRD0-1" source="iM_wBzGXd8bx9JoInRD0-55" edge="1">
                    <mxGeometry relative="1" as="geometry">
                        <mxPoint x="-254" y="40" as="targetPoint"/>
                    </mxGeometry>
                </mxCell>
                <mxCell id="iM_wBzGXd8bx9JoInRD0-55" value="&lt;b&gt;&lt;font style=&quot;font-size: 19px&quot;&gt;OUTPUT&lt;/font&gt;&lt;br&gt;Fully Connected&lt;/b&gt;" style="rounded=1;whiteSpace=wrap;html=1;fontSize=13;" parent="iM_wBzGXd8bx9JoInRD0-1" vertex="1">
                    <mxGeometry x="-451" y="100" width="393" height="60" as="geometry"/>
                </mxCell>
                <mxCell id="iM_wBzGXd8bx9JoInRD0-56" style="edgeStyle=orthogonalEdgeStyle;shape=flexArrow;rounded=1;orthogonalLoop=1;jettySize=auto;html=1;exitX=0.5;exitY=0;exitDx=0;exitDy=0;entryX=0.75;entryY=1;entryDx=0;entryDy=0;fontSize=13;" parent="iM_wBzGXd8bx9JoInRD0-1" source="iM_wBzGXd8bx9JoInRD0-57" target="iM_wBzGXd8bx9JoInRD0-55" edge="1">
                    <mxGeometry relative="1" as="geometry"/>
                </mxCell>
                <mxCell id="iM_wBzGXd8bx9JoInRD0-57" value="&lt;b&gt;&lt;font style=&quot;font-size: 19px&quot;&gt;ACTION&lt;/font&gt;&lt;br&gt;Fully Connected&lt;br&gt;&lt;/b&gt;" style="rounded=1;whiteSpace=wrap;html=1;fontSize=13;" parent="iM_wBzGXd8bx9JoInRD0-1" vertex="1">
                    <mxGeometry x="-177" y="220" width="120" height="60" as="geometry"/>
                </mxCell>
                <mxCell id="iM_wBzGXd8bx9JoInRD0-58" value="&lt;b&gt;&lt;font style=&quot;font-size: 13px&quot;&gt;Fully Connected&lt;/font&gt;&lt;/b&gt;" style="rounded=1;whiteSpace=wrap;html=1;" parent="iM_wBzGXd8bx9JoInRD0-1" vertex="1">
                    <mxGeometry x="-474" y="390" width="440" height="60" as="geometry"/>
                </mxCell>
                <mxCell id="iM_wBzGXd8bx9JoInRD0-59" style="edgeStyle=orthogonalEdgeStyle;rounded=1;orthogonalLoop=1;jettySize=auto;html=1;exitX=1;exitY=0.5;exitDx=0;exitDy=0;entryX=0;entryY=0.5;entryDx=0;entryDy=0;dashed=1;" parent="iM_wBzGXd8bx9JoInRD0-1" source="iM_wBzGXd8bx9JoInRD0-47" target="iM_wBzGXd8bx9JoInRD0-47" edge="1">
                    <mxGeometry relative="1" as="geometry">
                        <Array as="points">
                            <mxPoint x="-20" y="535"/>
                            <mxPoint x="-20" y="490"/>
                            <mxPoint x="-490" y="490"/>
                            <mxPoint x="-490" y="535"/>
                        </Array>
                    </mxGeometry>
                </mxCell>
                <mxCell id="iM_wBzGXd8bx9JoInRD0-60" value="h&lt;sub&gt;t&amp;nbsp;&lt;/sub&gt;&amp;nbsp; (B,T,D*hidden_size)" style="text;html=1;strokeColor=none;fillColor=none;align=center;verticalAlign=middle;whiteSpace=wrap;rounded=1;" parent="iM_wBzGXd8bx9JoInRD0-1" vertex="1">
                    <mxGeometry x="-260" y="450" width="156" height="30" as="geometry"/>
                </mxCell>
                <mxCell id="iM_wBzGXd8bx9JoInRD0-61" value="(B,L&lt;sub&gt;1&lt;/sub&gt;)" style="text;html=1;strokeColor=none;fillColor=none;align=center;verticalAlign=middle;whiteSpace=wrap;rounded=1;" parent="iM_wBzGXd8bx9JoInRD0-1" vertex="1">
                    <mxGeometry x="-421.5" y="900" width="60" height="30" as="geometry"/>
                </mxCell>
                <mxCell id="iM_wBzGXd8bx9JoInRD0-62" value="(B,L&lt;sub&gt;2&lt;/sub&gt;)" style="text;html=1;strokeColor=none;fillColor=none;align=center;verticalAlign=middle;whiteSpace=wrap;rounded=1;" parent="iM_wBzGXd8bx9JoInRD0-1" vertex="1">
                    <mxGeometry x="-147" y="900" width="60" height="30" as="geometry"/>
                </mxCell>
                <mxCell id="iM_wBzGXd8bx9JoInRD0-63" value="(B,T&lt;sub&gt;2&lt;/sub&gt;)" style="text;html=1;strokeColor=none;fillColor=none;align=center;verticalAlign=middle;whiteSpace=wrap;rounded=1;" parent="iM_wBzGXd8bx9JoInRD0-1" vertex="1">
                    <mxGeometry x="-114" y="720" width="60" height="30" as="geometry"/>
                </mxCell>
                <mxCell id="iM_wBzGXd8bx9JoInRD0-64" value="(B,T&lt;sub&gt;1&lt;/sub&gt;)" style="text;html=1;strokeColor=none;fillColor=none;align=center;verticalAlign=middle;whiteSpace=wrap;rounded=1;" parent="iM_wBzGXd8bx9JoInRD0-1" vertex="1">
                    <mxGeometry x="-390" y="720" width="60" height="30" as="geometry"/>
                </mxCell>
                <mxCell id="iM_wBzGXd8bx9JoInRD0-65" value="(B,T,E)" style="text;html=1;strokeColor=none;fillColor=none;align=center;verticalAlign=middle;whiteSpace=wrap;rounded=1;" parent="iM_wBzGXd8bx9JoInRD0-1" vertex="1">
                    <mxGeometry x="-260" y="570" width="60" height="30" as="geometry"/>
                </mxCell>
                <mxCell id="iM_wBzGXd8bx9JoInRD0-66" value="(B, out_features)" style="text;html=1;strokeColor=none;fillColor=none;align=center;verticalAlign=middle;whiteSpace=wrap;rounded=1;" parent="iM_wBzGXd8bx9JoInRD0-1" vertex="1">
                    <mxGeometry x="-260" y="355" width="100" height="30" as="geometry"/>
                </mxCell>
                <mxCell id="iM_wBzGXd8bx9JoInRD0-67" value="(B,T)" style="text;html=1;strokeColor=none;fillColor=none;align=center;verticalAlign=middle;whiteSpace=wrap;rounded=1;" parent="iM_wBzGXd8bx9JoInRD0-1" vertex="1">
                    <mxGeometry x="-260" y="660" width="60" height="30" as="geometry"/>
                </mxCell>
                <mxCell id="iM_wBzGXd8bx9JoInRD0-68" value="&lt;div&gt;B: batch size&lt;/div&gt;&lt;div&gt;L: sequence length&lt;/div&gt;&lt;div&gt;T: sequence tokens length&lt;/div&gt;&lt;div&gt;E: embeddings size&lt;/div&gt;&lt;div&gt;D: 2 if bidirectional LSTM, 1 otherwise&lt;/div&gt;&lt;div&gt;&lt;br&gt;&lt;/div&gt;" style="text;html=1;strokeColor=none;fillColor=none;align=left;verticalAlign=middle;whiteSpace=wrap;rounded=1;" parent="iM_wBzGXd8bx9JoInRD0-1" vertex="1">
                    <mxGeometry x="-44" y="810" width="221" height="160" as="geometry"/>
                </mxCell>
                <mxCell id="iM_wBzGXd8bx9JoInRD0-69" value="(B, shared_out_dim)" style="text;html=1;strokeColor=none;fillColor=none;align=center;verticalAlign=middle;whiteSpace=wrap;rounded=1;" parent="iM_wBzGXd8bx9JoInRD0-1" vertex="1">
                    <mxGeometry x="-114" y="300" width="140" height="30" as="geometry"/>
                </mxCell>
                <mxCell id="iM_wBzGXd8bx9JoInRD0-70" value="(B, shared_out_dim)" style="text;html=1;strokeColor=none;fillColor=none;align=center;verticalAlign=middle;whiteSpace=wrap;rounded=1;" parent="iM_wBzGXd8bx9JoInRD0-1" vertex="1">
                    <mxGeometry x="-390" y="300" width="140" height="30" as="geometry"/>
                </mxCell>
                <mxCell id="iM_wBzGXd8bx9JoInRD0-71" value="(B, state_layers)" style="text;html=1;strokeColor=none;fillColor=none;align=center;verticalAlign=middle;whiteSpace=wrap;rounded=1;" parent="iM_wBzGXd8bx9JoInRD0-1" vertex="1">
                    <mxGeometry x="-350" y="180" width="110" height="30" as="geometry"/>
                </mxCell>
                <mxCell id="iM_wBzGXd8bx9JoInRD0-72" value="(B, action_layers)" style="text;html=1;strokeColor=none;fillColor=none;align=center;verticalAlign=middle;whiteSpace=wrap;rounded=1;" parent="iM_wBzGXd8bx9JoInRD0-1" vertex="1">
                    <mxGeometry x="-130" y="180" width="140" height="30" as="geometry"/>
                </mxCell>
                <mxCell id="iM_wBzGXd8bx9JoInRD0-73" value="(B)" style="text;html=1;strokeColor=none;fillColor=none;align=center;verticalAlign=middle;whiteSpace=wrap;rounded=1;" parent="iM_wBzGXd8bx9JoInRD0-1" vertex="1">
                    <mxGeometry x="-324" y="10" width="140" height="30" as="geometry"/>
                </mxCell>
            </root>
        </mxGraphModel>
    </diagram>
</mxfile>